<svg width="703" height="132" viewBox="0 0 703 132" fill="none" xmlns="http://www.w3.org/2000/svg">
<path d="M546.601 111.331C493.592 107.251 440.02 110.617 387.011 113.065C334.566 115.513 282.233 119.593 229.788 121.429C179.486 123.163 128.282 123.163 79.2206 112.249C59.8216 107.965 -12.1352 91.3381 17.4144 61.5528C26.6628 52.2703 40.6481 47.0681 53.3928 43.0899C66.1375 39.1118 79.2206 36.3577 92.3036 33.6035C113.507 29.1153 134.598 24.5251 156.027 21.363C181.629 17.5888 207.457 14.8347 233.398 12.9986C335.581 5.65431 439.456 8.71444 541.075 20.649C561.715 23.0971 582.467 25.4432 602.994 28.8093C622.28 31.9715 641.905 36.0516 659.499 44.212C667.732 47.9862 675.515 52.6784 682.169 58.4926C689.049 64.5109 695.703 75.5273 685.214 81.6476C675.402 87.3599 662.431 89.1959 651.153 90.828C638.859 92.4601 626.566 93.5821 614.272 95.0102C601.528 96.4383 588.783 97.8663 576.038 98.9884C567.467 99.8044 567.128 111.943 576.038 111.331C602.994 109.495 629.837 105.211 656.454 101.232C676.191 98.2744 708.335 91.4401 702.245 67.163C697.733 49.2102 674.725 37.8877 657.582 31.2574C638.296 23.9131 617.769 20.1389 597.129 17.2828C492.239 2.90018 386.672 -3.01608 280.654 1.47212C227.533 3.71622 174.524 8.91845 122.417 18.6089C105.499 21.771 88.469 25.3412 71.664 29.1153C56.438 32.5835 41.0993 36.6637 27.2267 43.294C15.4971 48.9042 3.31633 57.4726 0.609493 69.9171C-2.99963 86.3398 9.97065 98.4783 24.971 105.619C45.1595 115.207 68.506 120.511 90.7247 124.388C116.44 128.876 142.606 131.12 168.885 131.732C224.713 133.16 280.429 128.57 336.032 125.408C391.973 122.143 448.027 120.409 504.081 117.757C518.405 117.043 532.616 116.227 546.827 115.105C549.308 114.901 549.308 111.535 546.601 111.331Z" fill="#FF60E6"/>
</svg>
